<svg width="16" height="16" viewBox="0 0 16 16" fill="none" xmlns="http://www.w3.org/2000/svg">
<path d="M14 7.47625C14.2006 8.82865 13.9696 10.2099 13.3399 11.4234C12.7102 12.6369 11.7139 13.621 10.4927 14.2357C9.27143 14.8504 7.88749 15.0643 6.53766 14.8471C5.18784 14.6299 3.94087 13.9926 2.97413 13.0259C2.00738 12.0591 1.37008 10.8122 1.15287 9.46235C0.935667 8.11252 1.14962 6.72858 1.76429 5.50736C2.37897 4.28614 3.36306 3.28983 4.57661 2.66014C5.79016 2.03046 7.17136 1.79946 8.52376 2C9.90326 2.20456 11.1804 2.84738 12.1665 3.8335C13.1526 4.81962 13.7955 6.09675 14 7.47625Z" stroke="white" stroke-width="2" stroke-linecap="round" stroke-linejoin="round"/>
</svg>
